%TF.GenerationSoftware,KiCad,Pcbnew,(6.0.0)*%
%TF.CreationDate,2024-12-16T18:31:45-06:00*%
%TF.ProjectId,UDEMY_STM32_Course,5544454d-595f-4535-944d-33325f436f75,rev?*%
%TF.SameCoordinates,Original*%
%TF.FileFunction,Soldermask,Top*%
%TF.FilePolarity,Negative*%
%FSLAX46Y46*%
G04 Gerber Fmt 4.6, Leading zero omitted, Abs format (unit mm)*
G04 Created by KiCad (PCBNEW (6.0.0)) date 2024-12-16 18:31:45*
%MOMM*%
%LPD*%
G01*
G04 APERTURE LIST*
G04 Aperture macros list*
%AMRoundRect*
0 Rectangle with rounded corners*
0 $1 Rounding radius*
0 $2 $3 $4 $5 $6 $7 $8 $9 X,Y pos of 4 corners*
0 Add a 4 corners polygon primitive as box body*
4,1,4,$2,$3,$4,$5,$6,$7,$8,$9,$2,$3,0*
0 Add four circle primitives for the rounded corners*
1,1,$1+$1,$2,$3*
1,1,$1+$1,$4,$5*
1,1,$1+$1,$6,$7*
1,1,$1+$1,$8,$9*
0 Add four rect primitives between the rounded corners*
20,1,$1+$1,$2,$3,$4,$5,0*
20,1,$1+$1,$4,$5,$6,$7,0*
20,1,$1+$1,$6,$7,$8,$9,0*
20,1,$1+$1,$8,$9,$2,$3,0*%
G04 Aperture macros list end*
%ADD10O,0.800000X0.800000*%
%ADD11O,1.800000X1.150000*%
%ADD12O,2.000000X1.450000*%
%ADD13R,1.300000X0.450000*%
%ADD14C,0.900000*%
%ADD15R,1.500000X0.700000*%
%ADD16R,0.800000X1.000000*%
%ADD17C,2.200000*%
%ADD18R,1.200000X1.400000*%
%ADD19RoundRect,0.075000X-0.662500X-0.075000X0.662500X-0.075000X0.662500X0.075000X-0.662500X0.075000X0*%
%ADD20RoundRect,0.075000X-0.075000X-0.662500X0.075000X-0.662500X0.075000X0.662500X-0.075000X0.662500X0*%
%ADD21R,3.800000X2.000000*%
%ADD22R,1.500000X2.000000*%
%ADD23RoundRect,0.135000X-0.185000X0.135000X-0.185000X-0.135000X0.185000X-0.135000X0.185000X0.135000X0*%
%ADD24RoundRect,0.135000X0.185000X-0.135000X0.185000X0.135000X-0.185000X0.135000X-0.185000X-0.135000X0*%
%ADD25RoundRect,0.135000X-0.135000X-0.185000X0.135000X-0.185000X0.135000X0.185000X-0.135000X0.185000X0*%
%ADD26RoundRect,0.135000X0.135000X0.185000X-0.135000X0.185000X-0.135000X-0.185000X0.135000X-0.185000X0*%
%ADD27O,1.700000X1.700000*%
%ADD28R,1.700000X1.700000*%
%ADD29RoundRect,0.218750X-0.256250X0.218750X-0.256250X-0.218750X0.256250X-0.218750X0.256250X0.218750X0*%
%ADD30RoundRect,0.140000X0.140000X0.170000X-0.140000X0.170000X-0.140000X-0.170000X0.140000X-0.170000X0*%
%ADD31RoundRect,0.140000X0.170000X-0.140000X0.170000X0.140000X-0.170000X0.140000X-0.170000X-0.140000X0*%
%ADD32RoundRect,0.140000X-0.140000X-0.170000X0.140000X-0.170000X0.140000X0.170000X-0.140000X0.170000X0*%
%ADD33RoundRect,0.140000X-0.170000X0.140000X-0.170000X-0.140000X0.170000X-0.140000X0.170000X0.140000X0*%
%ADD34RoundRect,0.225000X-0.225000X-0.250000X0.225000X-0.250000X0.225000X0.250000X-0.225000X0.250000X0*%
%ADD35RoundRect,0.250000X0.475000X-0.250000X0.475000X0.250000X-0.475000X0.250000X-0.475000X-0.250000X0*%
%ADD36RoundRect,0.250000X-0.250000X-0.475000X0.250000X-0.475000X0.250000X0.475000X-0.250000X0.475000X0*%
G04 APERTURE END LIST*
D10*
%TO.C,J1*%
X76795000Y-66455000D03*
X76795000Y-71455000D03*
D11*
X79545000Y-65080000D03*
X79545000Y-72830000D03*
D12*
X75745000Y-65230000D03*
X75745000Y-72680000D03*
D13*
X75695000Y-67655000D03*
X75695000Y-68305000D03*
X75695000Y-68955000D03*
X75695000Y-69605000D03*
X75695000Y-70255000D03*
%TD*%
D14*
%TO.C,SW1*%
X42970000Y-62850000D03*
X42970000Y-65850000D03*
D15*
X44730000Y-62100000D03*
X44730000Y-65100000D03*
X44730000Y-66600000D03*
D16*
X41870000Y-60700000D03*
X41870000Y-68000000D03*
X44080000Y-68000000D03*
X44080000Y-60700000D03*
%TD*%
D17*
%TO.C,H4*%
X43850000Y-57000000D03*
%TD*%
%TO.C,H3*%
X78850000Y-56900000D03*
%TD*%
%TO.C,H2*%
X78850000Y-81950000D03*
%TD*%
%TO.C,H1*%
X43850000Y-82000000D03*
%TD*%
D18*
%TO.C,Y1*%
X47500000Y-68450000D03*
X47500000Y-70650000D03*
X49200000Y-70650000D03*
X49200000Y-68450000D03*
%TD*%
D19*
%TO.C,U2*%
X54337500Y-67750000D03*
X54337500Y-68250000D03*
X54337500Y-68750000D03*
X54337500Y-69250000D03*
X54337500Y-69750000D03*
X54337500Y-70250000D03*
X54337500Y-70750000D03*
X54337500Y-71250000D03*
X54337500Y-71750000D03*
X54337500Y-72250000D03*
X54337500Y-72750000D03*
X54337500Y-73250000D03*
D20*
X55750000Y-74662500D03*
X56250000Y-74662500D03*
X56750000Y-74662500D03*
X57250000Y-74662500D03*
X57750000Y-74662500D03*
X58250000Y-74662500D03*
X58750000Y-74662500D03*
X59250000Y-74662500D03*
X59750000Y-74662500D03*
X60250000Y-74662500D03*
X60750000Y-74662500D03*
X61250000Y-74662500D03*
D19*
X62662500Y-73250000D03*
X62662500Y-72750000D03*
X62662500Y-72250000D03*
X62662500Y-71750000D03*
X62662500Y-71250000D03*
X62662500Y-70750000D03*
X62662500Y-70250000D03*
X62662500Y-69750000D03*
X62662500Y-69250000D03*
X62662500Y-68750000D03*
X62662500Y-68250000D03*
X62662500Y-67750000D03*
D20*
X61250000Y-66337500D03*
X60750000Y-66337500D03*
X60250000Y-66337500D03*
X59750000Y-66337500D03*
X59250000Y-66337500D03*
X58750000Y-66337500D03*
X58250000Y-66337500D03*
X57750000Y-66337500D03*
X57250000Y-66337500D03*
X56750000Y-66337500D03*
X56250000Y-66337500D03*
X55750000Y-66337500D03*
%TD*%
D21*
%TO.C,U1*%
X67950000Y-80850000D03*
D22*
X67950000Y-74550000D03*
X65650000Y-74550000D03*
X70250000Y-74550000D03*
%TD*%
D23*
%TO.C,R3*%
X67850000Y-68190000D03*
X67850000Y-69210000D03*
%TD*%
D24*
%TO.C,R2*%
X46950000Y-65110000D03*
X46950000Y-64090000D03*
%TD*%
D25*
%TO.C,R5*%
X59310000Y-79700000D03*
X58290000Y-79700000D03*
%TD*%
D26*
%TO.C,R4*%
X57140000Y-79650000D03*
X56120000Y-79650000D03*
%TD*%
D25*
%TO.C,R1*%
X75890000Y-75187500D03*
X76910000Y-75187500D03*
%TD*%
D27*
%TO.C,J3*%
X63980000Y-56350000D03*
X66520000Y-56350000D03*
X69060000Y-56350000D03*
D28*
X71600000Y-56350000D03*
%TD*%
%TO.C,J4*%
X53650000Y-82600000D03*
D27*
X56190000Y-82600000D03*
X58730000Y-82600000D03*
X61270000Y-82600000D03*
%TD*%
%TO.C,J2*%
X49930000Y-56350000D03*
X52470000Y-56350000D03*
X55010000Y-56350000D03*
D28*
X57550000Y-56350000D03*
%TD*%
D29*
%TO.C,FB1*%
X53750000Y-74862500D03*
X53750000Y-76437500D03*
%TD*%
%TO.C,D1*%
X75900000Y-76650000D03*
X75900000Y-78225000D03*
%TD*%
D30*
%TO.C,C3*%
X52050000Y-76400000D03*
X51090000Y-76400000D03*
%TD*%
%TO.C,C10*%
X52050000Y-74800000D03*
X51090000Y-74800000D03*
%TD*%
D31*
%TO.C,C9*%
X52600000Y-72230000D03*
X52600000Y-71270000D03*
%TD*%
D32*
%TO.C,C8*%
X55540000Y-64500000D03*
X56500000Y-64500000D03*
%TD*%
D30*
%TO.C,C7*%
X61730000Y-76450000D03*
X60770000Y-76450000D03*
%TD*%
D33*
%TO.C,C6*%
X64950000Y-67470000D03*
X64950000Y-68430000D03*
%TD*%
D31*
%TO.C,C13*%
X50750000Y-71110000D03*
X50750000Y-70150000D03*
%TD*%
%TO.C,C5*%
X52500000Y-67730000D03*
X52500000Y-66770000D03*
%TD*%
D32*
%TO.C,C11*%
X56040000Y-76450000D03*
X57000000Y-76450000D03*
%TD*%
D34*
%TO.C,C4*%
X55275000Y-63000000D03*
X56825000Y-63000000D03*
%TD*%
D31*
%TO.C,C12*%
X50750000Y-69060000D03*
X50750000Y-68100000D03*
%TD*%
D35*
%TO.C,C2*%
X72950000Y-78050000D03*
X72950000Y-76150000D03*
%TD*%
D36*
%TO.C,C1*%
X68600000Y-72100000D03*
X66700000Y-72100000D03*
%TD*%
M02*
