M48
; DRILL file {KiCad (6.0.0)} date Mon Dec 16 18:31:40 2024
; FORMAT={-:-/ absolute / inch / decimal}
; #@! TF.CreationDate,2024-12-16T18:31:40-06:00
; #@! TF.GenerationSoftware,Kicad,Pcbnew,(6.0.0)
; #@! TF.FileFunction,MixedPlating,1,2
FMAT,2
INCH
; #@! TA.AperFunction,Plated,PTH,ViaDrill
T1C0.0157
; #@! TA.AperFunction,Plated,PTH,ComponentDrill
T2C0.0217
; #@! TA.AperFunction,Plated,PTH,ComponentDrill
T3C0.0335
; #@! TA.AperFunction,Plated,PTH,ComponentDrill
T4C0.0394
; #@! TA.AperFunction,NonPlated,NPTH,ComponentDrill
T5C0.0315
; #@! TA.AperFunction,NonPlated,NPTH,ComponentDrill
T6C0.0354
; #@! TA.AperFunction,NonPlated,NPTH,ComponentDrill
T7C0.0866
%
G90
G05
T1
X1.7815Y-2.4016
X1.8799Y-2.8445
X1.939Y-2.6378
X1.998Y-2.6378
X2.0079Y-2.9035
X2.0079Y-3.0512
X2.0374Y-2.7461
X2.0669Y-2.5886
X2.1752Y-3.1791
X2.1949Y-2.815
X2.2145Y-2.6585
X2.239Y-3.1791
X2.2823Y-3.0008
X2.3228Y-3.0807
X2.3917Y-2.8839
X2.3917Y-3.0807
X2.5984Y-2.6969
X2.7461Y-2.9921
X2.7559Y-2.815
X2.7559Y-2.8642
X2.7854Y-2.9921
X2.9232Y-3.002
X2.9331Y-2.6575
X3.0413Y-2.9134
X3.0413Y-3.002
X3.061Y-2.9528
T4
X1.9657Y-2.2185
X2.0657Y-2.2185
X2.1122Y-3.252
X2.1657Y-2.2185
X2.2122Y-3.252
X2.2657Y-2.2185
X2.3122Y-3.252
X2.4122Y-3.252
X2.5189Y-2.2185
X2.6189Y-2.2185
X2.7189Y-2.2185
X2.8189Y-2.2185
T5
X3.0234Y-2.6163
X3.0234Y-2.8132
T6
X1.6917Y-2.4744
X1.6917Y-2.5925
T7
X1.7264Y-2.2441
X1.7264Y-3.2283
X3.1043Y-2.2402
X3.1043Y-3.2264
T2
G00X3.1189Y-2.5622
M15
G01X3.1445Y-2.5622
M16
G05
G00X3.1189Y-2.8673
M15
G01X3.1445Y-2.8673
M16
G05
T3
G00X2.9713Y-2.5681
M15
G01X2.9929Y-2.5681
M16
G05
G00X2.9713Y-2.8614
M15
G01X2.9929Y-2.8614
M16
G05
T0
M30
