%TF.GenerationSoftware,KiCad,Pcbnew,(6.0.0)*%
%TF.CreationDate,2024-12-16T18:31:44-06:00*%
%TF.ProjectId,UDEMY_STM32_Course,5544454d-595f-4535-944d-33325f436f75,rev?*%
%TF.SameCoordinates,Original*%
%TF.FileFunction,Copper,L1,Top*%
%TF.FilePolarity,Positive*%
%FSLAX46Y46*%
G04 Gerber Fmt 4.6, Leading zero omitted, Abs format (unit mm)*
G04 Created by KiCad (PCBNEW (6.0.0)) date 2024-12-16 18:31:44*
%MOMM*%
%LPD*%
G01*
G04 APERTURE LIST*
G04 Aperture macros list*
%AMRoundRect*
0 Rectangle with rounded corners*
0 $1 Rounding radius*
0 $2 $3 $4 $5 $6 $7 $8 $9 X,Y pos of 4 corners*
0 Add a 4 corners polygon primitive as box body*
4,1,4,$2,$3,$4,$5,$6,$7,$8,$9,$2,$3,0*
0 Add four circle primitives for the rounded corners*
1,1,$1+$1,$2,$3*
1,1,$1+$1,$4,$5*
1,1,$1+$1,$6,$7*
1,1,$1+$1,$8,$9*
0 Add four rect primitives between the rounded corners*
20,1,$1+$1,$2,$3,$4,$5,0*
20,1,$1+$1,$4,$5,$6,$7,0*
20,1,$1+$1,$6,$7,$8,$9,0*
20,1,$1+$1,$8,$9,$2,$3,0*%
G04 Aperture macros list end*
%TA.AperFunction,ComponentPad*%
%ADD10O,1.800000X1.150000*%
%TD*%
%TA.AperFunction,ComponentPad*%
%ADD11O,2.000000X1.450000*%
%TD*%
%TA.AperFunction,SMDPad,CuDef*%
%ADD12R,1.300000X0.450000*%
%TD*%
%TA.AperFunction,SMDPad,CuDef*%
%ADD13R,1.500000X0.700000*%
%TD*%
%TA.AperFunction,SMDPad,CuDef*%
%ADD14R,0.800000X1.000000*%
%TD*%
%TA.AperFunction,SMDPad,CuDef*%
%ADD15R,1.200000X1.400000*%
%TD*%
%TA.AperFunction,SMDPad,CuDef*%
%ADD16RoundRect,0.075000X-0.662500X-0.075000X0.662500X-0.075000X0.662500X0.075000X-0.662500X0.075000X0*%
%TD*%
%TA.AperFunction,SMDPad,CuDef*%
%ADD17RoundRect,0.075000X-0.075000X-0.662500X0.075000X-0.662500X0.075000X0.662500X-0.075000X0.662500X0*%
%TD*%
%TA.AperFunction,SMDPad,CuDef*%
%ADD18R,3.800000X2.000000*%
%TD*%
%TA.AperFunction,SMDPad,CuDef*%
%ADD19R,1.500000X2.000000*%
%TD*%
%TA.AperFunction,SMDPad,CuDef*%
%ADD20RoundRect,0.135000X-0.185000X0.135000X-0.185000X-0.135000X0.185000X-0.135000X0.185000X0.135000X0*%
%TD*%
%TA.AperFunction,SMDPad,CuDef*%
%ADD21RoundRect,0.135000X0.185000X-0.135000X0.185000X0.135000X-0.185000X0.135000X-0.185000X-0.135000X0*%
%TD*%
%TA.AperFunction,SMDPad,CuDef*%
%ADD22RoundRect,0.135000X-0.135000X-0.185000X0.135000X-0.185000X0.135000X0.185000X-0.135000X0.185000X0*%
%TD*%
%TA.AperFunction,SMDPad,CuDef*%
%ADD23RoundRect,0.135000X0.135000X0.185000X-0.135000X0.185000X-0.135000X-0.185000X0.135000X-0.185000X0*%
%TD*%
%TA.AperFunction,ComponentPad*%
%ADD24O,1.700000X1.700000*%
%TD*%
%TA.AperFunction,ComponentPad*%
%ADD25R,1.700000X1.700000*%
%TD*%
%TA.AperFunction,SMDPad,CuDef*%
%ADD26RoundRect,0.218750X-0.256250X0.218750X-0.256250X-0.218750X0.256250X-0.218750X0.256250X0.218750X0*%
%TD*%
%TA.AperFunction,SMDPad,CuDef*%
%ADD27RoundRect,0.140000X0.140000X0.170000X-0.140000X0.170000X-0.140000X-0.170000X0.140000X-0.170000X0*%
%TD*%
%TA.AperFunction,SMDPad,CuDef*%
%ADD28RoundRect,0.140000X0.170000X-0.140000X0.170000X0.140000X-0.170000X0.140000X-0.170000X-0.140000X0*%
%TD*%
%TA.AperFunction,SMDPad,CuDef*%
%ADD29RoundRect,0.140000X-0.140000X-0.170000X0.140000X-0.170000X0.140000X0.170000X-0.140000X0.170000X0*%
%TD*%
%TA.AperFunction,SMDPad,CuDef*%
%ADD30RoundRect,0.140000X-0.170000X0.140000X-0.170000X-0.140000X0.170000X-0.140000X0.170000X0.140000X0*%
%TD*%
%TA.AperFunction,SMDPad,CuDef*%
%ADD31RoundRect,0.225000X-0.225000X-0.250000X0.225000X-0.250000X0.225000X0.250000X-0.225000X0.250000X0*%
%TD*%
%TA.AperFunction,SMDPad,CuDef*%
%ADD32RoundRect,0.250000X0.475000X-0.250000X0.475000X0.250000X-0.475000X0.250000X-0.475000X-0.250000X0*%
%TD*%
%TA.AperFunction,SMDPad,CuDef*%
%ADD33RoundRect,0.250000X-0.250000X-0.475000X0.250000X-0.475000X0.250000X0.475000X-0.250000X0.475000X0*%
%TD*%
%TA.AperFunction,ViaPad*%
%ADD34C,0.800000*%
%TD*%
%TA.AperFunction,Conductor*%
%ADD35C,0.200000*%
%TD*%
%TA.AperFunction,Conductor*%
%ADD36C,0.300000*%
%TD*%
%TA.AperFunction,Conductor*%
%ADD37C,0.500000*%
%TD*%
G04 APERTURE END LIST*
D10*
%TO.P,J1,6,Shield*%
%TO.N,unconnected-(J1-Pad6)*%
X79545000Y-65080000D03*
X79545000Y-72830000D03*
D11*
X75745000Y-65230000D03*
X75745000Y-72680000D03*
D12*
%TO.P,J1,5,GND*%
%TO.N,GND*%
X75695000Y-67655000D03*
%TO.P,J1,4,ID*%
%TO.N,unconnected-(J1-Pad4)*%
X75695000Y-68305000D03*
%TO.P,J1,3,D+*%
%TO.N,/USB_D+*%
X75695000Y-68955000D03*
%TO.P,J1,2,D-*%
%TO.N,/USB_D-*%
X75695000Y-69605000D03*
%TO.P,J1,1,VBUS*%
%TO.N,VBUS*%
X75695000Y-70255000D03*
%TD*%
D13*
%TO.P,SW1,1,A*%
%TO.N,GND*%
X44730000Y-62100000D03*
%TO.P,SW1,2,B*%
%TO.N,/SW_BOOT0*%
X44730000Y-65100000D03*
%TO.P,SW1,3,C*%
%TO.N,+3V3*%
X44730000Y-66600000D03*
D14*
%TO.P,SW1,*%
%TO.N,*%
X41870000Y-60700000D03*
X41870000Y-68000000D03*
X44080000Y-68000000D03*
X44080000Y-60700000D03*
%TD*%
D15*
%TO.P,Y1,1,1*%
%TO.N,/HSE_IN*%
X47500000Y-68450000D03*
%TO.P,Y1,2,2*%
%TO.N,GND*%
X47500000Y-70650000D03*
%TO.P,Y1,3,3*%
%TO.N,/HSE_OUT*%
X49200000Y-70650000D03*
%TO.P,Y1,4,4*%
%TO.N,GND*%
X49200000Y-68450000D03*
%TD*%
D16*
%TO.P,U2,1,VBAT*%
%TO.N,+3V3*%
X54337500Y-67750000D03*
%TO.P,U2,2,PC13*%
%TO.N,unconnected-(U2-Pad2)*%
X54337500Y-68250000D03*
%TO.P,U2,3,PC14*%
%TO.N,unconnected-(U2-Pad3)*%
X54337500Y-68750000D03*
%TO.P,U2,4,PC15*%
%TO.N,unconnected-(U2-Pad4)*%
X54337500Y-69250000D03*
%TO.P,U2,5,PD0*%
%TO.N,/HSE_IN*%
X54337500Y-69750000D03*
%TO.P,U2,6,PD1*%
%TO.N,/HSE_OUT*%
X54337500Y-70250000D03*
%TO.P,U2,7,NRST*%
%TO.N,/NRST*%
X54337500Y-70750000D03*
%TO.P,U2,8,VSSA*%
%TO.N,GND*%
X54337500Y-71250000D03*
%TO.P,U2,9,VDDA*%
%TO.N,+3.3VA*%
X54337500Y-71750000D03*
%TO.P,U2,10,PA0*%
%TO.N,unconnected-(U2-Pad10)*%
X54337500Y-72250000D03*
%TO.P,U2,11,PA1*%
%TO.N,unconnected-(U2-Pad11)*%
X54337500Y-72750000D03*
%TO.P,U2,12,PA2*%
%TO.N,unconnected-(U2-Pad12)*%
X54337500Y-73250000D03*
D17*
%TO.P,U2,13,PA3*%
%TO.N,unconnected-(U2-Pad13)*%
X55750000Y-74662500D03*
%TO.P,U2,14,PA4*%
%TO.N,unconnected-(U2-Pad14)*%
X56250000Y-74662500D03*
%TO.P,U2,15,PA5*%
%TO.N,unconnected-(U2-Pad15)*%
X56750000Y-74662500D03*
%TO.P,U2,16,PA6*%
%TO.N,unconnected-(U2-Pad16)*%
X57250000Y-74662500D03*
%TO.P,U2,17,PA7*%
%TO.N,unconnected-(U2-Pad17)*%
X57750000Y-74662500D03*
%TO.P,U2,18,PB0*%
%TO.N,unconnected-(U2-Pad18)*%
X58250000Y-74662500D03*
%TO.P,U2,19,PB1*%
%TO.N,unconnected-(U2-Pad19)*%
X58750000Y-74662500D03*
%TO.P,U2,20,PB2*%
%TO.N,unconnected-(U2-Pad20)*%
X59250000Y-74662500D03*
%TO.P,U2,21,PB10*%
%TO.N,/I2C2_SCL*%
X59750000Y-74662500D03*
%TO.P,U2,22,PB11*%
%TO.N,/I2C2_SDA*%
X60250000Y-74662500D03*
%TO.P,U2,23,VSS*%
%TO.N,GND*%
X60750000Y-74662500D03*
%TO.P,U2,24,VDD*%
%TO.N,+3V3*%
X61250000Y-74662500D03*
D16*
%TO.P,U2,25,PB12*%
%TO.N,unconnected-(U2-Pad25)*%
X62662500Y-73250000D03*
%TO.P,U2,26,PB13*%
%TO.N,unconnected-(U2-Pad26)*%
X62662500Y-72750000D03*
%TO.P,U2,27,PB14*%
%TO.N,unconnected-(U2-Pad27)*%
X62662500Y-72250000D03*
%TO.P,U2,28,PB15*%
%TO.N,unconnected-(U2-Pad28)*%
X62662500Y-71750000D03*
%TO.P,U2,29,PA8*%
%TO.N,unconnected-(U2-Pad29)*%
X62662500Y-71250000D03*
%TO.P,U2,30,PA9*%
%TO.N,unconnected-(U2-Pad30)*%
X62662500Y-70750000D03*
%TO.P,U2,31,PA10*%
%TO.N,unconnected-(U2-Pad31)*%
X62662500Y-70250000D03*
%TO.P,U2,32,PA11*%
%TO.N,/USB_D-*%
X62662500Y-69750000D03*
%TO.P,U2,33,PA12*%
%TO.N,/USB_D+*%
X62662500Y-69250000D03*
%TO.P,U2,34,PA13*%
%TO.N,/SWDIO*%
X62662500Y-68750000D03*
%TO.P,U2,35,VSS*%
%TO.N,GND*%
X62662500Y-68250000D03*
%TO.P,U2,36,VDD*%
%TO.N,+3V3*%
X62662500Y-67750000D03*
D17*
%TO.P,U2,37,PA14*%
%TO.N,/SWCLK*%
X61250000Y-66337500D03*
%TO.P,U2,38,PA15*%
%TO.N,unconnected-(U2-Pad38)*%
X60750000Y-66337500D03*
%TO.P,U2,39,PB3*%
%TO.N,unconnected-(U2-Pad39)*%
X60250000Y-66337500D03*
%TO.P,U2,40,PB4*%
%TO.N,unconnected-(U2-Pad40)*%
X59750000Y-66337500D03*
%TO.P,U2,41,PB5*%
%TO.N,unconnected-(U2-Pad41)*%
X59250000Y-66337500D03*
%TO.P,U2,42,PB6*%
%TO.N,/USART1_TX*%
X58750000Y-66337500D03*
%TO.P,U2,43,PB7*%
%TO.N,/USART1_RX*%
X58250000Y-66337500D03*
%TO.P,U2,44,BOOT0*%
%TO.N,/BOOT0*%
X57750000Y-66337500D03*
%TO.P,U2,45,PB8*%
%TO.N,unconnected-(U2-Pad45)*%
X57250000Y-66337500D03*
%TO.P,U2,46,PB9*%
%TO.N,unconnected-(U2-Pad46)*%
X56750000Y-66337500D03*
%TO.P,U2,47,VSS*%
%TO.N,GND*%
X56250000Y-66337500D03*
%TO.P,U2,48,VDD*%
%TO.N,+3V3*%
X55750000Y-66337500D03*
%TD*%
D18*
%TO.P,U1,2,VO*%
%TO.N,+3V3*%
X67950000Y-80850000D03*
D19*
X67950000Y-74550000D03*
%TO.P,U1,3,VI*%
%TO.N,VBUS*%
X65650000Y-74550000D03*
%TO.P,U1,1,GND*%
%TO.N,GND*%
X70250000Y-74550000D03*
%TD*%
D20*
%TO.P,R3,1*%
%TO.N,+3V3*%
X67850000Y-68190000D03*
%TO.P,R3,2*%
%TO.N,/USB_D+*%
X67850000Y-69210000D03*
%TD*%
D21*
%TO.P,R2,1*%
%TO.N,/SW_BOOT0*%
X46950000Y-65110000D03*
%TO.P,R2,2*%
%TO.N,/BOOT0*%
X46950000Y-64090000D03*
%TD*%
D22*
%TO.P,R5,2*%
%TO.N,/I2C2_SDA*%
X59310000Y-79700000D03*
%TO.P,R5,1*%
%TO.N,+3V3*%
X58290000Y-79700000D03*
%TD*%
D23*
%TO.P,R4,1*%
%TO.N,+3V3*%
X57140000Y-79650000D03*
%TO.P,R4,2*%
%TO.N,/I2C2_SCL*%
X56120000Y-79650000D03*
%TD*%
D22*
%TO.P,R1,1*%
%TO.N,/PWR_LED_K*%
X75890000Y-75187500D03*
%TO.P,R1,2*%
%TO.N,GND*%
X76910000Y-75187500D03*
%TD*%
D24*
%TO.P,J3,4,Pin_4*%
%TO.N,GND*%
X63980000Y-56350000D03*
%TO.P,J3,3,Pin_3*%
%TO.N,/SWCLK*%
X66520000Y-56350000D03*
%TO.P,J3,2,Pin_2*%
%TO.N,/SWDIO*%
X69060000Y-56350000D03*
D25*
%TO.P,J3,1,Pin_1*%
%TO.N,+3V3*%
X71600000Y-56350000D03*
%TD*%
%TO.P,J4,1,Pin_1*%
%TO.N,+3V3*%
X53650000Y-82600000D03*
D24*
%TO.P,J4,2,Pin_2*%
%TO.N,/I2C2_SCL*%
X56190000Y-82600000D03*
%TO.P,J4,3,Pin_3*%
%TO.N,/I2C2_SDA*%
X58730000Y-82600000D03*
%TO.P,J4,4,Pin_4*%
%TO.N,GND*%
X61270000Y-82600000D03*
%TD*%
%TO.P,J2,4,Pin_4*%
%TO.N,GND*%
X49930000Y-56350000D03*
%TO.P,J2,3,Pin_3*%
%TO.N,/USART1_RX*%
X52470000Y-56350000D03*
%TO.P,J2,2,Pin_2*%
%TO.N,/USART1_TX*%
X55010000Y-56350000D03*
D25*
%TO.P,J2,1,Pin_1*%
%TO.N,+3V3*%
X57550000Y-56350000D03*
%TD*%
D26*
%TO.P,FB1,1*%
%TO.N,+3.3VA*%
X53750000Y-74862500D03*
%TO.P,FB1,2*%
%TO.N,+3V3*%
X53750000Y-76437500D03*
%TD*%
%TO.P,D1,1,K*%
%TO.N,/PWR_LED_K*%
X75900000Y-76650000D03*
%TO.P,D1,2,A*%
%TO.N,+3V3*%
X75900000Y-78225000D03*
%TD*%
D27*
%TO.P,C3,1*%
%TO.N,+3V3*%
X52050000Y-76400000D03*
%TO.P,C3,2*%
%TO.N,GND*%
X51090000Y-76400000D03*
%TD*%
%TO.P,C10,1*%
%TO.N,+3.3VA*%
X52050000Y-74800000D03*
%TO.P,C10,2*%
%TO.N,GND*%
X51090000Y-74800000D03*
%TD*%
D28*
%TO.P,C9,1*%
%TO.N,+3.3VA*%
X52600000Y-72230000D03*
%TO.P,C9,2*%
%TO.N,GND*%
X52600000Y-71270000D03*
%TD*%
D29*
%TO.P,C8,1*%
%TO.N,+3V3*%
X55540000Y-64500000D03*
%TO.P,C8,2*%
%TO.N,GND*%
X56500000Y-64500000D03*
%TD*%
D27*
%TO.P,C7,1*%
%TO.N,+3V3*%
X61730000Y-76450000D03*
%TO.P,C7,2*%
%TO.N,GND*%
X60770000Y-76450000D03*
%TD*%
D30*
%TO.P,C6,1*%
%TO.N,+3V3*%
X64950000Y-67470000D03*
%TO.P,C6,2*%
%TO.N,GND*%
X64950000Y-68430000D03*
%TD*%
D28*
%TO.P,C13,1*%
%TO.N,/HSE_OUT*%
X50750000Y-71110000D03*
%TO.P,C13,2*%
%TO.N,GND*%
X50750000Y-70150000D03*
%TD*%
%TO.P,C5,1*%
%TO.N,+3V3*%
X52500000Y-67730000D03*
%TO.P,C5,2*%
%TO.N,GND*%
X52500000Y-66770000D03*
%TD*%
D29*
%TO.P,C11,1*%
%TO.N,/NRST*%
X56040000Y-76450000D03*
%TO.P,C11,2*%
%TO.N,GND*%
X57000000Y-76450000D03*
%TD*%
D31*
%TO.P,C4,1*%
%TO.N,+3V3*%
X55275000Y-63000000D03*
%TO.P,C4,2*%
%TO.N,GND*%
X56825000Y-63000000D03*
%TD*%
D28*
%TO.P,C12,1*%
%TO.N,/HSE_IN*%
X50750000Y-69060000D03*
%TO.P,C12,2*%
%TO.N,GND*%
X50750000Y-68100000D03*
%TD*%
D32*
%TO.P,C2,1*%
%TO.N,+3V3*%
X72950000Y-78050000D03*
%TO.P,C2,2*%
%TO.N,GND*%
X72950000Y-76150000D03*
%TD*%
D33*
%TO.P,C1,2*%
%TO.N,GND*%
X68600000Y-72100000D03*
%TO.P,C1,1*%
%TO.N,VBUS*%
X66700000Y-72100000D03*
%TD*%
D34*
%TO.N,GND*%
X49250000Y-67000000D03*
X47750000Y-72250000D03*
%TO.N,+3V3*%
X77250000Y-74000000D03*
X77250000Y-76250000D03*
X55250000Y-80750000D03*
X56869500Y-80750000D03*
X60750000Y-78250000D03*
X59000000Y-78250000D03*
%TO.N,GND*%
X74250000Y-76250000D03*
X70750000Y-76000000D03*
X69750000Y-76000000D03*
X70000000Y-72750000D03*
X70000000Y-71500000D03*
X77750000Y-75000000D03*
X74500000Y-67500000D03*
X66000000Y-68500000D03*
X56247615Y-67525688D03*
X45250000Y-61000000D03*
X51750000Y-69750000D03*
X50750000Y-67000000D03*
X55750000Y-71500000D03*
X60750000Y-73250000D03*
X57970023Y-76220023D03*
X51000000Y-77500000D03*
X51000000Y-73750000D03*
X52500000Y-65750000D03*
%TD*%
D35*
%TO.N,/USB_D-*%
X62692020Y-69779520D02*
X62662500Y-69750000D01*
X68920480Y-69779520D02*
X62692020Y-69779520D01*
X74365487Y-69699519D02*
X69000481Y-69699519D01*
X74460006Y-69605000D02*
X74365487Y-69699519D01*
X69000481Y-69699519D02*
X68920480Y-69779520D01*
X75695000Y-69605000D02*
X74460006Y-69605000D01*
%TO.N,/USB_D+*%
X74545000Y-68955000D02*
X75695000Y-68955000D01*
X74200001Y-69299999D02*
X74545000Y-68955000D01*
X62712499Y-69299999D02*
X74200001Y-69299999D01*
X62662500Y-69250000D02*
X62712499Y-69299999D01*
D36*
%TO.N,+3.3VA*%
X52642285Y-72230000D02*
X52600000Y-72230000D01*
X53122285Y-71750000D02*
X52642285Y-72230000D01*
X54337500Y-71750000D02*
X53122285Y-71750000D01*
D37*
%TO.N,+3V3*%
X57850000Y-54900000D02*
X70900000Y-54900000D01*
X71600000Y-55600000D02*
X71600000Y-56350000D01*
X57550000Y-55200000D02*
X57850000Y-54900000D01*
X70900000Y-54900000D02*
X71600000Y-55600000D01*
X57550000Y-56350000D02*
X57550000Y-55200000D01*
%TO.N,GND*%
X49200000Y-67050000D02*
X49250000Y-67000000D01*
X49200000Y-68450000D02*
X49200000Y-67050000D01*
X47500000Y-72000000D02*
X47750000Y-72250000D01*
X47500000Y-70650000D02*
X47500000Y-72000000D01*
D36*
%TO.N,+3V3*%
X67650000Y-67350000D02*
X67850000Y-67350000D01*
X67530000Y-67470000D02*
X67650000Y-67350000D01*
X74575000Y-60625000D02*
X74625000Y-60625000D01*
X67850000Y-67350000D02*
X74575000Y-60625000D01*
D37*
X74625000Y-60625000D02*
X73000000Y-59000000D01*
X77750000Y-63750000D02*
X74625000Y-60625000D01*
D36*
X67850000Y-67350000D02*
X67850000Y-68110000D01*
X64950000Y-67470000D02*
X67530000Y-67470000D01*
D37*
X71600000Y-58600000D02*
X71600000Y-56350000D01*
X72000000Y-59000000D02*
X71600000Y-58600000D01*
X73000000Y-59000000D02*
X72000000Y-59000000D01*
X77250000Y-73351110D02*
X77750000Y-72851110D01*
X77250000Y-74000000D02*
X77250000Y-73351110D01*
X77500000Y-76500000D02*
X77250000Y-76250000D01*
X77500000Y-79000000D02*
X77500000Y-76500000D01*
X74550000Y-79300000D02*
X74550000Y-82700000D01*
X77750000Y-72851110D02*
X77750000Y-63750000D01*
X77200000Y-79300000D02*
X77500000Y-79000000D01*
X74550000Y-78050000D02*
X74550000Y-79300000D01*
X74550000Y-79300000D02*
X77200000Y-79300000D01*
X54237980Y-67650480D02*
X54337500Y-67650480D01*
X53750000Y-67162500D02*
X54237980Y-67650480D01*
X53750000Y-63000000D02*
X53750000Y-67162500D01*
X53750000Y-63000000D02*
X55275000Y-63000000D01*
X49000000Y-63000000D02*
X53750000Y-63000000D01*
X48750000Y-65500000D02*
X48750000Y-63250000D01*
X48000000Y-66250000D02*
X48750000Y-65500000D01*
X46750000Y-66250000D02*
X48000000Y-66250000D01*
X46250000Y-66750000D02*
X46750000Y-66250000D01*
X48750000Y-63250000D02*
X49000000Y-63000000D01*
%TO.N,+3.3VA*%
X52050000Y-72780000D02*
X52600000Y-72230000D01*
X52050000Y-74800000D02*
X52050000Y-72780000D01*
X52112500Y-74862500D02*
X52050000Y-74800000D01*
X53750000Y-74862500D02*
X52112500Y-74862500D01*
%TO.N,+3V3*%
X53712500Y-76400000D02*
X53750000Y-76437500D01*
X52050000Y-76400000D02*
X53712500Y-76400000D01*
X52050000Y-76400000D02*
X52050000Y-80450000D01*
X52050000Y-80450000D02*
X51750000Y-80750000D01*
X49250000Y-80750000D02*
X51750000Y-80750000D01*
X51750000Y-80750000D02*
X54500000Y-80750000D01*
X46250000Y-77750000D02*
X49250000Y-80750000D01*
X46250000Y-66750000D02*
X46250000Y-77750000D01*
X46100000Y-66600000D02*
X46250000Y-66750000D01*
X44730000Y-66600000D02*
X46100000Y-66600000D01*
X53650000Y-81600000D02*
X53650000Y-82600000D01*
X54500000Y-80750000D02*
X53650000Y-81600000D01*
X55250000Y-80750000D02*
X54500000Y-80750000D01*
X57140000Y-80479500D02*
X56869500Y-80750000D01*
X57140000Y-79650000D02*
X57140000Y-80479500D01*
X57190000Y-79700000D02*
X57140000Y-79650000D01*
X58290000Y-79700000D02*
X57190000Y-79700000D01*
X58290000Y-78960000D02*
X58290000Y-79700000D01*
X59000000Y-78250000D02*
X58290000Y-78960000D01*
X63750000Y-78250000D02*
X63750000Y-77500000D01*
X63750000Y-82750000D02*
X63750000Y-78250000D01*
X63750000Y-78250000D02*
X60750000Y-78250000D01*
X62700000Y-76450000D02*
X61730000Y-76450000D01*
X63750000Y-77500000D02*
X62700000Y-76450000D01*
X64250000Y-83250000D02*
X63750000Y-82750000D01*
X74000000Y-83250000D02*
X64250000Y-83250000D01*
X74550000Y-82700000D02*
X74000000Y-83250000D01*
X74550000Y-78050000D02*
X75725000Y-78050000D01*
X72950000Y-78050000D02*
X74550000Y-78050000D01*
X75725000Y-78050000D02*
X75900000Y-78225000D01*
%TO.N,/PWR_LED_K*%
X75900000Y-75197500D02*
X75890000Y-75187500D01*
X75900000Y-76650000D02*
X75900000Y-75197500D01*
D36*
%TO.N,GND*%
X77562500Y-75187500D02*
X77750000Y-75000000D01*
X76910000Y-75187500D02*
X77562500Y-75187500D01*
X74655000Y-67655000D02*
X74500000Y-67500000D01*
X75695000Y-67655000D02*
X74655000Y-67655000D01*
X66000000Y-68500000D02*
X65930000Y-68430000D01*
X65930000Y-68430000D02*
X64950000Y-68430000D01*
X56250000Y-67523303D02*
X56247615Y-67525688D01*
X56250000Y-66337500D02*
X56250000Y-67523303D01*
D37*
X45250000Y-61580000D02*
X45250000Y-61000000D01*
X44730000Y-62100000D02*
X45250000Y-61580000D01*
X51350000Y-70150000D02*
X50750000Y-70150000D01*
X51750000Y-69750000D02*
X51350000Y-70150000D01*
D36*
%TO.N,/HSE_OUT*%
X52900000Y-70600000D02*
X53250000Y-70250000D01*
X53250000Y-70250000D02*
X54337500Y-70250000D01*
X51750000Y-70600000D02*
X52900000Y-70600000D01*
%TO.N,GND*%
X52620000Y-71250000D02*
X52600000Y-71270000D01*
X54337500Y-71250000D02*
X52620000Y-71250000D01*
%TO.N,/HSE_IN*%
X50810000Y-69000000D02*
X50750000Y-69060000D01*
X52500000Y-69000000D02*
X50810000Y-69000000D01*
X53250000Y-69750000D02*
X52500000Y-69000000D01*
X54337500Y-69750000D02*
X53250000Y-69750000D01*
D37*
%TO.N,GND*%
X50750000Y-68100000D02*
X50750000Y-67000000D01*
D36*
%TO.N,/NRST*%
X55000000Y-74000000D02*
X55000000Y-75750000D01*
X56750000Y-72250000D02*
X55000000Y-74000000D01*
X56750000Y-71250000D02*
X56750000Y-72250000D01*
X55000000Y-75750000D02*
X55700000Y-76450000D01*
X56250000Y-70750000D02*
X56750000Y-71250000D01*
X54337500Y-70750000D02*
X56250000Y-70750000D01*
X55700000Y-76450000D02*
X56040000Y-76450000D01*
%TO.N,GND*%
X55500000Y-71250000D02*
X55750000Y-71500000D01*
X54337500Y-71250000D02*
X55500000Y-71250000D01*
X60750000Y-74662500D02*
X60750000Y-73250000D01*
%TO.N,/I2C2_SCL*%
X56120000Y-79380000D02*
X56120000Y-79650000D01*
X59750000Y-75750000D02*
X56120000Y-79380000D01*
X59750000Y-74662500D02*
X59750000Y-75750000D01*
D37*
%TO.N,GND*%
X57940046Y-76250000D02*
X57970023Y-76220023D01*
X57750000Y-76250000D02*
X57940046Y-76250000D01*
X57550000Y-76450000D02*
X57750000Y-76250000D01*
X57000000Y-76450000D02*
X57550000Y-76450000D01*
X51090000Y-77410000D02*
X51090000Y-76400000D01*
X51000000Y-77500000D02*
X51090000Y-77410000D01*
X51000000Y-74000000D02*
X51000000Y-73750000D01*
X51090000Y-74800000D02*
X51090000Y-74090000D01*
X51090000Y-74090000D02*
X51000000Y-74000000D01*
X52500000Y-66770000D02*
X52500000Y-65750000D01*
D36*
%TO.N,/I2C2_SDA*%
X58730000Y-80770000D02*
X58730000Y-82600000D01*
X59310000Y-80190000D02*
X58730000Y-80770000D01*
X59310000Y-79700000D02*
X59310000Y-80190000D01*
%TO.N,/I2C2_SCL*%
X56120000Y-82530000D02*
X56190000Y-82600000D01*
X56120000Y-79650000D02*
X56120000Y-82530000D01*
%TO.N,/I2C2_SDA*%
X60000000Y-76217715D02*
X60000000Y-79010000D01*
X60000000Y-79010000D02*
X59310000Y-79700000D01*
X60250000Y-74662500D02*
X60250000Y-75967715D01*
X60250000Y-75967715D02*
X60000000Y-76217715D01*
%TO.N,+3V3*%
X61500000Y-76220000D02*
X61730000Y-76450000D01*
X61250000Y-75550000D02*
X61500000Y-75800000D01*
X61250000Y-74662500D02*
X61250000Y-75550000D01*
X61500000Y-75800000D02*
X61500000Y-76220000D01*
%TO.N,GND*%
X60750000Y-76430000D02*
X60770000Y-76450000D01*
X60750000Y-74662500D02*
X60750000Y-76430000D01*
%TO.N,/SW_BOOT0*%
X44740000Y-65110000D02*
X44730000Y-65100000D01*
X46950000Y-65110000D02*
X44740000Y-65110000D01*
%TO.N,/BOOT0*%
X46950000Y-61300000D02*
X46950000Y-64090000D01*
X47750000Y-60500000D02*
X46950000Y-61300000D01*
X58500000Y-60500000D02*
X47750000Y-60500000D01*
X57750000Y-64500000D02*
X58500000Y-63750000D01*
X57750000Y-66337500D02*
X57750000Y-64500000D01*
X58500000Y-63750000D02*
X58500000Y-60500000D01*
%TO.N,/USART1_RX*%
X53250000Y-59500000D02*
X52470000Y-58720000D01*
X59000000Y-59500000D02*
X53250000Y-59500000D01*
X59250000Y-64000000D02*
X59250000Y-59750000D01*
X59250000Y-59750000D02*
X59000000Y-59500000D01*
X58250000Y-65000000D02*
X59250000Y-64000000D01*
X58250000Y-66337500D02*
X58250000Y-65000000D01*
X52470000Y-58720000D02*
X52470000Y-56350000D01*
%TO.N,/USART1_TX*%
X55010000Y-58260000D02*
X55010000Y-56350000D01*
X59250000Y-58750000D02*
X55500000Y-58750000D01*
X55500000Y-58750000D02*
X55010000Y-58260000D01*
X60000000Y-59500000D02*
X59250000Y-58750000D01*
X60000000Y-64249639D02*
X60000000Y-59500000D01*
X58750000Y-65499639D02*
X60000000Y-64249639D01*
X58750000Y-66337500D02*
X58750000Y-65499639D01*
%TO.N,/SWDIO*%
X61250000Y-67750000D02*
X69060000Y-59940000D01*
X69060000Y-59940000D02*
X69060000Y-56350000D01*
X61500000Y-68750000D02*
X61250000Y-68500000D01*
X61250000Y-68500000D02*
X61250000Y-67750000D01*
X62662500Y-68750000D02*
X61500000Y-68750000D01*
%TO.N,/SWCLK*%
X66520000Y-58480000D02*
X66520000Y-56350000D01*
X61250000Y-63750000D02*
X66520000Y-58480000D01*
X61250000Y-66337500D02*
X61250000Y-63750000D01*
%TO.N,/HSE_IN*%
X47500000Y-68550000D02*
X47500000Y-68450000D01*
X48450000Y-69500000D02*
X47500000Y-68550000D01*
X50310000Y-69500000D02*
X48450000Y-69500000D01*
X50750000Y-69060000D02*
X50310000Y-69500000D01*
%TO.N,/HSE_OUT*%
X51750000Y-70600000D02*
X51750000Y-71050000D01*
X51750000Y-71050000D02*
X51690000Y-71110000D01*
X51690000Y-71110000D02*
X50750000Y-71110000D01*
X50000000Y-70650000D02*
X49200000Y-70650000D01*
X50460000Y-71110000D02*
X50000000Y-70650000D01*
X50750000Y-71110000D02*
X50460000Y-71110000D01*
%TO.N,GND*%
X64930000Y-68450000D02*
X64950000Y-68430000D01*
X64000000Y-68450000D02*
X64930000Y-68450000D01*
X63800000Y-68250000D02*
X64000000Y-68450000D01*
X62662500Y-68250000D02*
X63800000Y-68250000D01*
%TO.N,+3V3*%
X63880000Y-67470000D02*
X64950000Y-67470000D01*
X63600000Y-67750000D02*
X63880000Y-67470000D01*
X62662500Y-67750000D02*
X63600000Y-67750000D01*
X54337500Y-67750000D02*
X52520000Y-67750000D01*
X52520000Y-67750000D02*
X52500000Y-67730000D01*
D37*
%TO.N,GND*%
X56500000Y-64000000D02*
X56500000Y-64500000D01*
X56825000Y-63675000D02*
X56500000Y-64000000D01*
X56825000Y-63000000D02*
X56825000Y-63675000D01*
%TO.N,+3V3*%
X55275000Y-63575000D02*
X55540000Y-63840000D01*
X55540000Y-63840000D02*
X55540000Y-64500000D01*
X55275000Y-63000000D02*
X55275000Y-63575000D01*
D36*
%TO.N,GND*%
X56500000Y-65250000D02*
X56500000Y-64500000D01*
X56499639Y-65250000D02*
X56500000Y-65250000D01*
X56250000Y-65499639D02*
X56499639Y-65250000D01*
X56250000Y-66337500D02*
X56250000Y-65499639D01*
%TO.N,+3V3*%
X55540000Y-65390000D02*
X55540000Y-64500000D01*
X55750000Y-65600000D02*
X55540000Y-65390000D01*
X55750000Y-66337500D02*
X55750000Y-65600000D01*
%TD*%
%TA.AperFunction,Conductor*%
%TO.N,GND*%
G36*
X70281239Y-71020826D02*
G01*
X70989785Y-71493190D01*
X71008683Y-71508683D01*
X71463681Y-71963681D01*
X71497166Y-72025004D01*
X71500000Y-72051362D01*
X71500000Y-75000000D01*
X72250000Y-75500000D01*
X74626000Y-75500000D01*
X74693039Y-75519685D01*
X74738794Y-75572489D01*
X74750000Y-75624000D01*
X74750000Y-76626000D01*
X74730315Y-76693039D01*
X74677511Y-76738794D01*
X74626000Y-76750000D01*
X69374000Y-76750000D01*
X69306961Y-76730315D01*
X69261206Y-76677511D01*
X69250000Y-76626000D01*
X69250000Y-73250000D01*
X69000000Y-73000000D01*
X68124000Y-73000000D01*
X68056961Y-72980315D01*
X68011206Y-72927511D01*
X68000000Y-72876000D01*
X68000000Y-71124000D01*
X68019685Y-71056961D01*
X68072489Y-71011206D01*
X68124000Y-71000000D01*
X70212456Y-71000000D01*
X70281239Y-71020826D01*
G37*
%TD.AperFunction*%
%TD*%
%TA.AperFunction,Conductor*%
%TO.N,VBUS*%
G36*
X76443039Y-70150185D02*
G01*
X76488794Y-70202989D01*
X76500000Y-70254500D01*
X76500000Y-70376000D01*
X76480315Y-70443039D01*
X76427511Y-70488794D01*
X76376000Y-70500000D01*
X67525272Y-70500000D01*
X67488762Y-70489279D01*
X67459685Y-70540315D01*
X67250000Y-70750000D01*
X67250000Y-72698638D01*
X67230315Y-72765677D01*
X67213681Y-72786319D01*
X67036319Y-72963681D01*
X66974996Y-72997166D01*
X66948638Y-73000000D01*
X66550000Y-73000000D01*
X66550000Y-75626000D01*
X66530315Y-75693039D01*
X66477511Y-75738794D01*
X66426000Y-75750000D01*
X64624000Y-75750000D01*
X64556961Y-75730315D01*
X64511206Y-75677511D01*
X64500000Y-75626000D01*
X64500000Y-73374000D01*
X64519685Y-73306961D01*
X64572489Y-73261206D01*
X64624000Y-73250000D01*
X66000000Y-73250000D01*
X66000000Y-71076636D01*
X66019685Y-71009597D01*
X66068546Y-70965727D01*
X67316550Y-70341725D01*
X67385315Y-70329350D01*
X67410928Y-70339973D01*
X67431559Y-70294797D01*
X67469818Y-70265091D01*
X67473818Y-70263091D01*
X67529272Y-70250000D01*
X75000000Y-70250000D01*
X75000000Y-70236668D01*
X75001855Y-70228141D01*
X75035340Y-70166818D01*
X75096664Y-70133334D01*
X75123021Y-70130500D01*
X76376000Y-70130500D01*
X76443039Y-70150185D01*
G37*
%TD.AperFunction*%
%TD*%
%TA.AperFunction,Conductor*%
%TO.N,+3V3*%
G36*
X68690655Y-73521037D02*
G01*
X68737596Y-73572789D01*
X68750000Y-73626847D01*
X68750000Y-77500000D01*
X73626000Y-77500000D01*
X73693039Y-77519685D01*
X73738794Y-77572489D01*
X73750000Y-77624000D01*
X73750000Y-81876000D01*
X73730315Y-81943039D01*
X73677511Y-81988794D01*
X73626000Y-82000000D01*
X66124000Y-82000000D01*
X66056961Y-81980315D01*
X66011206Y-81927511D01*
X66000000Y-81876000D01*
X66000000Y-78826636D01*
X66019685Y-78759597D01*
X66068546Y-78715727D01*
X66984053Y-78257974D01*
X66984054Y-78257973D01*
X67000000Y-78250000D01*
X67000000Y-73660944D01*
X67019685Y-73593905D01*
X67072489Y-73548150D01*
X67121186Y-73536976D01*
X68623186Y-73502879D01*
X68690655Y-73521037D01*
G37*
%TD.AperFunction*%
%TD*%
M02*
